<?xml version="1.0" encoding="UTF-8" standalone="no"?>
<!-- Created with Inkscape (http://www.inkscape.org/) -->

<svg
   version="1.1"
   id="svg1"
   width="819"
   height="280"
   viewBox="0 0 819 280"
   sodipodi:docname="gert-logo.png"
   xmlns:inkscape="http://www.inkscape.org/namespaces/inkscape"
   xmlns:sodipodi="http://sodipodi.sourceforge.net/DTD/sodipodi-0.dtd"
   xmlns="http://www.w3.org/2000/svg"
   xmlns:svg="http://www.w3.org/2000/svg">
  <defs
     id="defs1">
    <linearGradient
       id="swatch18"
       inkscape:swatch="solid">
      <stop
         style="stop-color:#fb8933;stop-opacity:1;"
         offset="0"
         id="stop18" />
    </linearGradient>
  </defs>
  <sodipodi:namedview
     id="namedview1"
     pagecolor="#ffffff"
     bordercolor="#000000"
     borderopacity="0.25"
     inkscape:showpageshadow="2"
     inkscape:pageopacity="0.0"
     inkscape:pagecheckerboard="0"
     inkscape:deskcolor="#d1d1d1"
     showgrid="false" />
  <g
     inkscape:groupmode="layer"
     inkscape:label="Image"
     id="g1">
    <g
       id="g8">
      <path
         style="fill:#fb8933"
         d="m 37.343746,275.94308 c -33.9021028,-6.5808 -26.69079,-56.52583 7.744649,-53.63889 l 6.847988,0.57411 21.956906,-24.98192 21.956905,-24.98191 -2.675097,-5.70724 C 89.47975,159.32333 89.320826,143.27366 92.8612,135.50704 L 95.137218,130.51407 72.318609,108.2524 C 40.70186,77.407318 39.882652,76.713918 36.553346,77.979718 12.123164,87.268057 -8.0161025,54.349436 10.666667,35.666667 29.915182,16.418151 61.549269,36.351638 52.492215,62.022066 l -1.507786,4.27352 19.757786,19.103309 c 10.866782,10.50682 23.212553,22.409625 27.435048,26.450675 l 7.677267,7.34737 6.80368,-3.34847 c 6.48236,-3.19033 7.32974,-3.34847 17.94216,-3.34847 h 11.13848 l 17.50619,-32.38888 17.50619,-32.388879 -2.37401,-3.498303 c -13.33463,-19.649672 6.04922,-46.4746261 28.80299,-39.8599269 28.1754,8.1908119 23.19678,49.2933259 -6.22661,51.4056239 l -6.54639,0.469964 -17.73376,32.942489 -17.73377,32.942492 3.99681,4.54061 c 3.6716,4.17116 8.06351,13.36092 8.06351,16.87232 0,1.8482 -1.66254,1.5206 14.5,2.85723 l 14,1.1578 4.1453,-3.70036 c 19.26437,-17.1966 46.65137,10.11926 29.05697,28.98149 C 218.62868,183.63316 194,178.0235 194,164.92956 c 0,-1.86396 -0.70261,-1.98362 -20.08373,-3.42056 l -7.58374,-0.56227 -1.15104,3.77664 c -5.73039,18.80162 -31.56857,29.85463 -51.22756,21.91401 -3.50601,-1.41614 -6.61743,-2.21833 -6.91425,-1.78265 -0.29682,0.43568 -9.850903,11.3856 -21.231287,24.33315 l -20.691606,23.54101 2.122065,4.28908 c 9.777203,19.76148 -8.178326,43.14059 -29.895106,38.92511 z M 279.87244,209.25 c -1.24387,-1.58606 -1.2085,-1.62143 0.37756,-0.37756 1.66575,1.30637 2.19548,2.12756 1.37244,2.12756 -0.20765,0 -0.99515,-0.7875 -1.75,-1.75 z"
         id="path9" />
      <path
         style="fill:#0b384c"
         d="M 323.36704,230.90817 C 242.93905,217.46378 231.6354,97.066596 308,67.231001 c 29.9572,-11.704256 66.7319,-6.069826 89.89581,13.773372 l 2.39581,2.052355 -7.42493,7.721636 c -4.08371,4.2469 -8.62769,9.192948 -10.09773,10.991216 l -2.67279,3.26958 -6.88472,-5.02325 c -32.12194,-23.436947 -72.81535,-8.68089 -80.87552,29.32671 -10.75486,50.71439 23.1617,85.96501 68.16407,70.8452 l 8,-2.68782 0.27392,-17.32074 0.27392,-17.32074 -15.5253,0.32074 -15.5253,0.32074 0.001,-13.25 L 338,137 h 31.5 31.5 v 35.97675 35.97674 l -5.09532,4.02762 c -18.70315,14.78399 -48.01044,22.02704 -72.53764,17.92706 z M 428,146.50908 V 64 h 51 51 V 77.5 91 h -35 -35 v 20 20 h 31 31 v 14 14 h -31 -31 v 20.5 20.5 h 35.52746 35.52745 l -0.27745,14.25 -0.27746,14.25 -51.25,0.25908 -51.25,0.25908 z m 130.6641,81.82168 C 558.29884,227.96551 558,190.84167 558,145.83333 V 64 h 36.04216 c 40.0639,0 46.40349,0.681054 57.66772,6.195167 34.29885,16.790115 33.38816,73.209783 -1.45988,90.443243 -2.8875,1.42796 -5.25,2.81076 -5.25,3.0729 0,0.58401 35.88548,61.28079 37.28373,63.0618 0.80306,1.02288 -2.59601,1.21942 -17.29413,1 L 646.69595,227.5 630.05137,198 l -16.64459,-29.5 -12.23051,-0.281 -12.23051,-0.28099 0.085,30.28099 0.085,30.281 -14.89381,0.24743 c -8.1916,0.13608 -15.19265,-0.0514 -15.5579,-0.41667 z m 68.53338,-88.96621 c 15.21831,-4.27004 22.36261,-21.02848 15.36858,-36.05018 C 637.84692,93.178646 630.27359,90.52687 606,90.510873 L 589.5,90.5 589.23283,115.75 588.96566,141 h 16.20156 c 11.95511,0 17.72928,-0.42865 22.03026,-1.63545 z M 737,159.93363 V 91 H 713.5 690 V 77.5 64 H 752.5 815 V 77.5 91 h -23.49311 -23.49311 l -0.25689,68.75 -0.25689,68.75 -15.25,0.18363 -15.25,0.18362 z"
         id="path8" />
    </g>
    <path
       style="fill:#fb8933;fill-opacity:1;stroke:#fb8933;stroke-width:5.73736;stroke-miterlimit:5.1;stroke-opacity:1"
       id="path10"
       sodipodi:type="arc"
       sodipodi:cx="128.92612"
       sodipodi:cy="150.27103"
       sodipodi:rx="37.114014"
       sodipodi:ry="37.70446"
       sodipodi:start="0"
       sodipodi:end="6.2718028"
       sodipodi:open="true"
       sodipodi:arc-type="arc"
       d="m 166.04013,150.27103 a 37.114014,37.70446 0 0 1 -37.0084,37.7043 37.114014,37.70446 0 0 1 -37.219026,-37.48972 37.114014,37.70446 0 0 1 36.796576,-37.91767 37.114014,37.70446 0 0 1 37.42845,37.27392" />
    <path
       style="fill:#fb8933;fill-opacity:1;stroke:#fb8933;stroke-width:3.83966;stroke-miterlimit:5.1;stroke-opacity:1"
       id="path10-6"
       sodipodi:type="arc"
       sodipodi:cx="-217.33173"
       sodipodi:cy="-154.97394"
       sodipodi:rx="24.838087"
       sodipodi:ry="25.233236"
       sodipodi:start="0"
       sodipodi:end="6.2718028"
       sodipodi:open="true"
       sodipodi:arc-type="arc"
       d="m -192.49364,-154.97394 a 24.838087,25.233236 0 0 1 -24.76741,25.23314 24.838087,25.233236 0 0 1 -24.90836,-25.08953 24.838087,25.233236 0 0 1 24.62565,-25.37592 24.838087,25.233236 0 0 1 25.04851,24.9451"
       transform="rotate(-179.78843)" />
  </g>
</svg>
