<?xml version="1.0" encoding="UTF-8" standalone="no"?>
<!-- Created with Inkscape (http://www.inkscape.org/) -->

<svg
   version="1.1"
   id="svg1"
   width="278.66058"
   height="273.10049"
   viewBox="0 0 278.66059 273.10049"
   sodipodi:docname="logo-separate-transparent-background.svg"
   inkscape:version="1.3.2 (091e20e, 2023-11-25, custom)"
   inkscape:export-filename="favicon-transparent-background.png"
   inkscape:export-xdpi="96"
   inkscape:export-ydpi="96"
   xmlns:inkscape="http://www.inkscape.org/namespaces/inkscape"
   xmlns:sodipodi="http://sodipodi.sourceforge.net/DTD/sodipodi-0.dtd"
   xmlns:xlink="http://www.w3.org/1999/xlink"
   xmlns="http://www.w3.org/2000/svg"
   xmlns:svg="http://www.w3.org/2000/svg">
  <defs
     id="defs1">
    <linearGradient
       id="linearGradient43"
       inkscape:collect="always">
      <stop
         style="stop-color:#ff0000;stop-opacity:1"
         offset="0"
         id="stop43" />
      <stop
         style="stop-color:#ffff00;stop-opacity:1"
         offset="1"
         id="stop44" />
    </linearGradient>
    <linearGradient
       id="swatch18"
       inkscape:swatch="solid">
      <stop
         style="stop-color:#fb8933;stop-opacity:1;"
         offset="0"
         id="stop18" />
    </linearGradient>
    <clipPath
       clipPathUnits="userSpaceOnUse"
       id="clipPath13">
      <rect
         style="fill:none;stroke:#000000;stroke-width:5.29134;stroke-miterlimit:5.1"
         id="rect14"
         width="259.63608"
         height="288.68011"
         x="-6.1608558"
         y="-3.0804279"
         ry="0.5988428" />
    </clipPath>
    <clipPath
       clipPathUnits="userSpaceOnUse"
       id="clipPath42">
      <g
         id="g43">
        <rect
           style="fill:none;stroke:#000000;stroke-width:5.29134;stroke-miterlimit:5.1"
           id="rect42"
           width="259.63608"
           height="288.68011"
           x="27.839144"
           y="-3.0804279"
           ry="0.5988428" />
      </g>
    </clipPath>
    <linearGradient
       inkscape:collect="always"
       xlink:href="#linearGradient43"
       id="linearGradient44"
       x1="9.3433838"
       y1="139.89047"
       x2="241.01726"
       y2="142.37984"
       gradientUnits="userSpaceOnUse" />
  </defs>
  <sodipodi:namedview
     id="namedview1"
     pagecolor="#ffffff"
     bordercolor="#000000"
     borderopacity="0.25"
     inkscape:showpageshadow="2"
     inkscape:pageopacity="0.0"
     inkscape:pagecheckerboard="0"
     inkscape:deskcolor="#d1d1d1"
     showgrid="false"
     inkscape:zoom="3.2136752"
     inkscape:cx="111.24335"
     inkscape:cy="128.35771"
     inkscape:window-width="1920"
     inkscape:window-height="1009"
     inkscape:window-x="-8"
     inkscape:window-y="-8"
     inkscape:window-maximized="1"
     inkscape:current-layer="g1" />
  <g
     inkscape:groupmode="layer"
     inkscape:label="Image"
     id="g1"
     transform="translate(-9.3433838,-3.340214)">
    <path
       style="fill:#000000;fill-opacity:1;stroke:none;stroke-opacity:1"
       d="M 357.36704,230.90817 C 276.93905,217.46378 265.6354,97.066596 342,67.231001 c 29.9572,-11.704256 66.7319,-6.069826 89.89581,13.773372 l 2.39581,2.052355 -7.42493,7.721636 c -4.08371,4.2469 -8.62769,9.192948 -10.09773,10.991216 l -2.67279,3.26958 -6.88472,-5.02325 c -32.12194,-23.436947 -72.81535,-8.68089 -80.87552,29.32671 -10.75486,50.71439 23.1617,85.96501 68.16407,70.8452 l 8,-2.68782 0.27392,-17.32074 0.27392,-17.32074 -15.5253,0.32074 -15.5253,0.32074 0.001,-13.25 L 372,137 h 31.5 31.5 v 35.97675 35.97674 l -5.09532,4.02762 c -18.70315,14.78399 -48.01044,22.02704 -72.53764,17.92706 z M 462,146.50908 V 64 h 51 51 V 77.5 91 h -35 -35 v 20 20 h 31 31 v 14 14 h -31 -31 v 20.5 20.5 h 35.52746 35.52745 l -0.27745,14.25 -0.27746,14.25 -51.25,0.25908 -51.25,0.25908 z m 130.6641,81.82168 C 592.29884,227.96551 592,190.84167 592,145.83333 V 64 h 36.04216 c 40.0639,0 46.40349,0.681054 57.66772,6.195167 34.29885,16.790115 33.38816,73.209783 -1.45988,90.443243 -2.8875,1.42796 -5.25,2.81076 -5.25,3.0729 0,0.58401 35.88548,61.28079 37.28373,63.0618 0.80306,1.02288 -2.59601,1.21942 -17.29413,1 L 680.69595,227.5 664.05137,198 l -16.64459,-29.5 -12.23051,-0.281 -12.23051,-0.28099 0.085,30.28099 0.085,30.281 -14.89381,0.24743 c -8.1916,0.13608 -15.19265,-0.0514 -15.5579,-0.41667 z m 68.53338,-88.96621 c 15.21831,-4.27004 22.36261,-21.02848 15.36858,-36.05018 C 671.84692,93.178646 664.27359,90.52687 640,90.510873 L 623.5,90.5 623.23283,115.75 622.96566,141 h 16.20156 c 11.95511,0 17.72928,-0.42865 22.03026,-1.63545 z M 771,159.93363 V 91 H 747.5 724 V 77.5 64 H 786.5 849 V 77.5 91 h -23.49311 -23.49311 l -0.25689,68.75 -0.25689,68.75 -15.25,0.18363 -15.25,0.18362 z"
       id="path8"
       clip-path="url(#clipPath42)" />
    <path
       id="path9"
       style="fill:url(#linearGradient44);fill-opacity:1;stroke:none;stroke-opacity:1"
       d="M 200.86244,3.3725422 C 182.09133,4.3443213 168.71027,27.030659 180.37806,44.224105 l 2.37305,3.498047 -17.50586,32.388671 -16.68164,30.863277 a 41.619015,41.619015 0 0 0 -12.06641,-1.6582 41.619015,41.619015 0 0 0 -25.39257,9.16406 l -6.92774,-6.63086 C 99.954403,107.80806 87.608115,95.904742 76.741344,85.397933 L 56.983531,66.29637 58.491344,62.022933 C 67.548389,36.35253 35.915621,16.418967 16.667125,35.667464 c -18.6827507,18.68275 1.456561,51.60083 25.886719,42.3125 3.329303,-1.265799 4.148907,-0.573567 35.765625,30.271486 l 22.628911,22.07812 a 41.619015,41.619015 0 0 0 -5.556645,20.94336 41.619015,41.619015 0 0 0 6.384765,21.72461 L 79.893688,197.89598 57.936656,222.8784 51.089,222.30418 c -34.435404,-2.88693 -41.6481625,47.05788 -7.746094,53.63867 21.716759,4.21548 39.673678,-19.16432 29.896485,-38.92578 L 71.116344,232.72801 91.80775,209.187 c 11.38038,-12.94754 20.9356,-23.89636 21.23242,-24.33204 0.002,-0.003 0.0155,6.3e-4 0.0176,-0.002 a 41.619015,41.619015 0 0 0 24.12109,7.69727 41.619015,41.619015 0 0 0 40.05664,-31.24024 l 2.68165,0.19922 c 9.92257,0.73567 14.91204,1.12802 17.45507,1.58399 a 21.89304,21.89304 0 0 0 21.28907,16.63671 21.89304,21.89304 0 0 0 13.21679,-4.57617 c 1.01733,-0.67658 1.98591,-1.42159 2.82422,-2.32031 3.48213,-3.73305 5.14753,-7.79265 5.51758,-11.77734 a 21.89304,21.89304 0 0 0 0.24609,-3.21875 l -0.004,-0.35743 a 21.89304,21.89304 0 0 0 -22.15821,-21.5332 21.89304,21.89304 0 0 0 -18.90234,11.43164 l -11.90234,-0.98437 c -4.23115,-0.34992 -7.14563,-0.58274 -9.28321,-0.77344 A 41.619015,41.619015 0 0 0 162.92095,118.44671 L 178.6729,89.181086 196.40728,56.23968 202.95415,55.768977 C 232.3776,53.656731 237.35617,12.555533 209.1808,4.3647297 206.33658,3.5378931 203.54402,3.2337166 200.86244,3.3725422 Z M 284.99916,207.9995 c -0.0516,0.0516 0.25111,0.45697 0.87304,1.25 0.75485,0.96249 1.54235,1.75 1.75,1.75 0.82304,0 0.2927,-0.82059 -1.37304,-2.12696 -0.79303,-0.62193 -1.19839,-0.92466 -1.25,-0.87304 z" />
  </g>
</svg>
